name C:\Users\u0150099\Documents\master_thesis\3dpredictsim\Results\debug\Fal_s1_mtj_sc_cspx10_oy_TrackAnkleQSubtQ_MTPm_k1_d01_MTJm_nl_MG_exp_table_d01_PF_Gefen2002_ls146_FDB_ig21.mot
datacolumns 130
datarows 4
range 0.54579804 0.57854592
endheader
time	pelvis_tilt	pelvis_list	pelvis_rotation	pelvis_tx	pelvis_ty	pelvis_tz	hip_flexion_l	hip_adduction_l	hip_rotation_l	hip_flexion_r	hip_adduction_r	hip_rotation_r	knee_angle_l	knee_angle_r	ankle_angle_l	ankle_angle_r	subtalar_angle_l	subtalar_angle_r	mtj_angle_l	mtj_angle_r	mtp_angle_l	mtp_angle_r	lumbar_extension	lumbar_bending	lumbar_rotation	arm_flex_l	arm_add_l	arm_rot_l	arm_flex_r	arm_add_r	arm_rot_r	elbow_flex_l	elbow_flex_r	pro_sup_l	pro_sup_r	glut_med1_l/activation	glut_med2_l/activation	glut_med3_l/activation	glut_min1_l/activation	glut_min2_l/activation	glut_min3_l/activation	semimem_l/activation	semiten_l/activation	bifemlh_l/activation	bifemsh_l/activation	sar_l/activation	add_long_l/activation	add_brev_l/activation	add_mag1_l/activation	add_mag2_l/activation	add_mag3_l/activation	tfl_l/activation	pect_l/activation	grac_l/activation	glut_max1_l/activation	glut_max2_l/activation	glut_max3_l/activation	iliacus_l/activation	psoas_l/activation	quad_fem_l/activation	gem_l/activation	peri_l/activation	rect_fem_l/activation	vas_med_l/activation	vas_int_l/activation	vas_lat_l/activation	med_gas_l/activation	lat_gas_l/activation	soleus_l/activation	tib_post_l/activation	flex_dig_l/activation	flex_hal_l/activation	tib_ant_l/activation	per_brev_l/activation	per_long_l/activation	per_tert_l/activation	ext_dig_l/activation	ext_hal_l/activation	FDB_l/activation	ercspn_l/activation	intobl_l/activation	extobl_l/activation	glut_med1_r/activation	glut_med2_r/activation	glut_med3_r/activation	glut_min1_r/activation	glut_min2_r/activation	glut_min3_r/activation	semimem_r/activation	semiten_r/activation	bifemlh_r/activation	bifemsh_r/activation	sar_r/activation	add_long_r/activation	add_brev_r/activation	add_mag1_r/activation	add_mag2_r/activation	add_mag3_r/activation	tfl_r/activation	pect_r/activation	grac_r/activation	glut_max1_r/activation	glut_max2_r/activation	glut_max3_r/activation	iliacus_r/activation	psoas_r/activation	quad_fem_r/activation	gem_r/activation	peri_r/activation	rect_fem_r/activation	vas_med_r/activation	vas_int_r/activation	vas_lat_r/activation	med_gas_r/activation	lat_gas_r/activation	soleus_r/activation	tib_post_r/activation	flex_dig_r/activation	flex_hal_r/activation	tib_ant_r/activation	per_brev_r/activation	per_long_r/activation	per_tert_r/activation	ext_dig_r/activation	ext_hal_r/activation	FDB_r/activation	ercspn_r/activation	intobl_r/activation	extobl_r/activation	
          0.54579804	         -2.91629527	          1.44979977	         -4.79578838	          0.72591139	          0.90807040	          0.00570018	         27.92948553	          2.27123930	         -3.34795757	        -11.99393043	          1.96226553	          5.88834023	         -7.84806511	        -19.85187389	          2.78597146	          2.20834517	         -0.46456095	          1.96906828	         -4.02718718	          2.08516760	         12.01966035	         25.28680821	         -3.19131695	         -0.57898737	          2.04937535	         -6.77690339	        -13.45245140	          4.69748216	          4.58845150	        -14.04576328	         19.37146723	         25.43806237	         37.15649651	         86.51662706	         86.51662706	          0.12996356	          0.05000006	          0.05050429	          0.05000005	          0.05000007	          0.05000032	          0.36409717	          0.08647969	          0.23749184	          0.06984829	          0.06984771	          0.09780023	          0.08274000	          0.09289240	          0.08035344	          0.12082094	          0.05000040	          0.05862467	          0.12340760	          0.05000103	          0.08671344	          0.11712171	          0.08254760	          0.11532690	          0.21711820	          0.05000051	          0.05000024	          0.05000000	          0.05000002	          0.05000002	          0.05000002	          0.05909662	          0.05909662	          0.05744630	          0.19103827	          0.07083328	          0.08605175	          0.36078773	          0.12455870	          0.27619117	          0.21425072	          0.49773013	          0.05000012	          0.26064650	          0.05000000	          0.13622923	          0.13630960	          0.24958840	          0.05909667	          0.05000031	          0.45822603	          0.19310269	          0.07291044	          0.05000024	          0.05000003	          0.05000004	          0.05000002	          0.05684720	          0.05000002	          0.05000004	          0.05000012	          0.05000043	          0.05000056	          0.60411978	          0.05000011	          0.05000005	          0.05006183	          0.05000581	          0.05000090	          0.38228336	          0.60477175	          0.05000006	          0.05000024	          0.05000007	          0.51879501	          0.19542827	          0.19968367	          0.17385428	          0.30941833	          0.53181219	          0.19522391	          0.85362721	          0.58770294	          0.75784078	          0.05000000	          0.05000009	          0.65741337	          0.05000001	          0.05000000	          0.09600425	          0.95895071	          0.05000000	          0.05000577	          0.05314970	
          0.55671400	         -2.92156597	          1.64741013	         -5.07340902	          0.74328627	          0.90648440	          0.00529528	         27.83017540	          2.62167748	         -3.19404969	        -12.80310927	          1.47008719	          5.67551816	         -8.56358219	        -20.01143755	          2.07443618	          1.14926369	         -0.68200146	          2.34731032	         -3.41088275	          1.13362725	         11.54120879	         27.89167230	         -3.00135679	         -0.86669307	          2.16971490	         -7.48615763	        -13.45211913	          4.45402167	          4.20851527	        -13.98580306	         19.27098995	         24.75987844	         38.39513662	         86.51662706	         86.51662706	          0.10995858	          0.05909635	          0.05000009	          0.05909666	          0.05909662	          0.05000069	          0.30903759	          0.07316804	          0.20093519	          0.05909668	          0.05909653	          0.11587275	          0.07000410	          0.07859378	          0.06798547	          0.16305430	          0.05000012	          0.05000108	          0.10441172	          0.05000021	          0.12699563	          0.19767160	          0.09413142	          0.09757539	          0.29422814	          0.13630986	          0.05000016	          0.06984795	          0.05000003	          0.05000003	          0.05000003	          0.05000000	          0.05000000	          0.05000000	          0.16163212	          0.05993013	          0.07280634	          0.36895258	          0.10538569	          0.27082096	          0.38534774	          0.53185905	          0.05909664	          0.22437401	          0.05000000	          0.11579535	          0.11532774	          0.24443979	          0.05000011	          0.05000001	          0.38769283	          0.16337879	          0.06168751	          0.05000051	          0.05000004	          0.05000004	          0.05000012	          0.05909662	          0.05000021	          0.05000010	          0.05000009	          0.05000026	          0.05000015	          0.62854526	          0.05000126	          0.05000008	          0.05000023	          0.05000012	          0.05000009	          0.35015282	          0.57500365	          0.05000001	          0.05000008	          0.05000015	          0.48267921	          0.20334516	          0.20774385	          0.18076498	          0.28290316	          0.50543006	          0.16517347	          0.79930471	          0.59999832	          0.70876337	          0.05000000	          0.05000002	          0.58345575	          0.05000000	          0.05000000	          0.08122651	          0.86953677	          0.05000000	          0.06956763	          0.05000012	
          0.56762996	         -2.92411017	          1.84724280	         -5.32950990	          0.76094795	          0.90496950	          0.00486701	         27.75267674	          2.96095560	         -3.00462922	        -13.53019532	          0.97443423	          5.44680003	        -10.01107630	        -20.27584522	          0.98142257	          0.06198926	         -0.99971545	          2.74436944	         -2.56786200	         -0.19526487	         11.13760788	         30.94826230	         -2.80175868	         -1.16322517	          2.28002701	         -8.18577219	        -13.47144121	          4.45355406	          3.76343152	        -13.92098981	         19.13654811	         24.02003199	         39.60553351	         86.51662706	         86.51662706	          0.21952780	          0.05000001	          0.05000004	          0.05000005	          0.05000003	          0.05000004	          0.26146802	          0.06190542	          0.17000564	          0.05000004	          0.05000009	          0.09803737	          0.14752264	          0.08646965	          0.05909674	          0.19191585	          0.05909614	          0.07380151	          0.08833984	          0.05000006	          0.20950428	          0.24177451	          0.08255580	          0.08255586	          0.36782443	          0.11532800	          0.09757676	          0.05909664	          0.05909664	          0.05909664	          0.05909663	          0.07601637	          0.08255602	          0.06984829	          0.13675240	          0.09016977	          0.06984817	          0.52162806	          0.42377846	          0.22913401	          0.32603192	          0.44999100	          0.05000001	          0.18983654	          0.05000000	          0.09797121	          0.09757556	          0.22583177	          0.05000016	          0.05000011	          0.32801604	          0.13823023	          0.05219211	          0.05000283	          0.05005489	          0.05000069	          0.05000013	          0.05000027	          0.13815747	          0.06199742	          0.05909655	          0.05909619	          0.05909669	          0.56134440	          0.05000072	          0.05000194	          0.05001891	          0.05018832	          0.05909634	          0.29625450	          0.60921881	          0.05247435	          0.05000034	          0.05000002	          0.41679577	          0.21359207	          0.21880495	          0.19068971	          0.23935644	          0.44315178	          0.13974863	          0.67626933	          0.51753263	          0.59966486	          0.05000000	          0.05000001	          0.50356168	          0.05000001	          0.05000000	          0.08255580	          0.73569062	          0.05000000	          0.05909663	          0.06984822	
          0.57854592	         -2.92554075	          2.05673862	         -5.56306580	          0.77880867	          0.90361611	          0.00440741	         27.63049987	          3.29321773	         -2.78801857	        -14.15283904	          0.47053422	          5.21328190	        -11.62561015	        -20.64880826	         -0.27795836	         -1.12160016	         -1.37338021	          3.14124254	         -1.90498199	         -1.88513850	         10.88319058	         34.45856771	         -2.59763495	         -1.47319410	          2.38245376	         -8.86056920	        -13.50296334	          4.65532916	          3.26705274	        -13.85828434	         19.00173359	         23.22602247	         40.78038181	         86.51662706	         86.51662706	          0.37877778	          0.25906724	          0.26098945	          0.20986081	          0.21449218	          0.16719908	          0.22122074	          0.15846781	          0.15296744	          0.12779938	          0.08255575	          0.08294668	          0.12481477	          0.07315956	          0.05000011	          0.25112380	          0.05000005	          0.06244149	          0.23493866	          0.22561149	          0.29239395	          0.30699319	          0.06984821	          0.06984822	          0.31120593	          0.09757582	          0.08255701	          0.05000000	          0.05000001	          0.05000001	          0.05000000	          0.06431531	          0.06984833	          0.05909668	          0.23855999	          0.07629011	          0.05909659	          0.63594815	          0.35854706	          0.29662487	          0.60991138	          0.68165782	          0.32456197	          0.53108229	          0.06170513	          0.09757553	          0.08255594	          0.19991187	          0.05000000	          0.05000000	          0.40472016	          0.11695274	          0.05000002	          0.05000043	          0.05000002	          0.05000001	          0.05909660	          0.05909752	          0.18417082	          0.05245439	          0.05000004	          0.05000012	          0.05000012	          0.60509969	          0.06984972	          0.05000005	          0.05000008	          0.05000004	          0.05000003	          0.26780180	          0.68999932	          0.05000000	          0.05000001	          0.05000001	          0.40889263	          0.19041515	          0.19041953	          0.16151171	          0.20251276	          0.37493828	          0.11823738	          0.57217246	          0.43786994	          0.50735960	          0.05000000	          0.05000023	          0.42604939	          0.05000002	          0.05000000	          0.06984823	          0.62244715	          0.06390361	          0.05000000	          0.05909662	
